<svg version="1.1" xmlns="http://www.w3.org/2000/svg" xmlns:xlink="http://www.w3.org/1999/xlink" width="700" height="700" viewBox="-144,68.5,700,700"><g id="document" fill-opacity="0" fill="#ff0000" fill-rule="nonzero" stroke-opacity="0" stroke="#000000" stroke-width="0" stroke-linecap="butt" stroke-linejoin="miter" stroke-miterlimit="10" stroke-dasharray="" stroke-dashoffset="0" font-family="none" font-weight="none" font-size="none" text-anchor="none" style="mix-blend-mode: normal"><rect x="-144" y="48.92857" transform="scale(1,1.4)" width="700" height="500" id="Shape 1 1" vector-effect="non-scaling-stroke"/></g><g fill="#000000" fill-rule="nonzero" stroke="#000000" stroke-width="0" stroke-linecap="round" stroke-linejoin="round" stroke-miterlimit="10" stroke-dasharray="" stroke-dashoffset="0" font-family="none" font-weight="none" font-size="none" text-anchor="none" style="mix-blend-mode: normal"><g id="stage"><g id="layer1 1"><path d="M101.91671,320.62703v-67.86752v-79.72402c23.56872,-9.70844 49.38961,-15.06338 76.46123,-15.06338c97.87324,0 179.39872,69.99307 197.25217,162.65493h107.99196v76.46123h-107.99196h-72.15982c3.6912,-12.09288 5.67694,-24.92985 5.67694,-38.23061c0,-13.30076 -1.98574,-26.13773 -5.67694,-38.23061c-16.35165,-53.57033 -66.17123,-92.53868 -125.09235,-92.53869v92.53868v76.46123h-76.46122h-48.63114h-69.66351v-76.46123h69.66351z" id="Path 1"/><path d="M310.0833,498.32124v75.19206v88.32816c-23.56872,10.75621 -49.38961,16.68909 -76.46123,16.68909c-97.87324,0 -179.39872,-77.547 -197.25217,-180.2093h-107.99196v-84.71323h107.99196h72.15982c-3.6912,13.39799 -5.67694,27.62038 -5.67694,42.35661c0,14.73623 1.98574,28.95862 5.67694,42.35661c16.35165,59.35185 66.17123,102.52583 125.09235,102.52583v-102.52583v-84.71323h76.46122h48.63114h69.66351v84.71323h-69.66351z" id="Path 1"/></g></g></g></svg>